<svg width="243" height="128" viewBox="0 0 243 128" fill="none" xmlns="http://www.w3.org/2000/svg">
<path opacity="0.75" d="M23.2725 -9.23633C75.5989 -83.3575 183.992 -80.5337 232.688 -9.58496C208.414 14.6892 184.119 38.9712 159.737 63.3467L159.384 63.7002L159.736 64.0537C184.217 88.6072 208.459 112.923 233.038 137.582C207.254 171.773 173.442 190.818 130.355 191.481C85.6516 192.174 50.4279 173.217 23.5566 137.98C48.1711 113.423 72.4774 89.1749 96.8408 64.8613L97.1953 64.5078L96.8408 64.1533C72.0116 39.3817 47.7021 15.129 23.2725 -9.23633ZM127.419 96.2021C113.781 109.824 99.8313 123.759 85.8809 137.686L85.5264 138.039L85.8809 138.393C89.7016 142.205 95.6362 145.041 102.648 146.937C109.67 148.835 117.819 149.803 126.116 149.846C142.687 149.931 159.975 146.327 170.107 138.944L170.58 138.601L170.166 138.187C163.158 131.187 156.135 124.174 149.121 117.17C142.107 110.166 135.101 103.169 128.126 96.2021L127.772 95.8496L127.419 96.2021ZM126.107 -22.2822C110.986 -21.9718 96.5769 -17.9058 86.1514 -10.9072L85.6465 -10.5684L86.0771 -10.1387C100.042 3.81009 114.058 17.81 127.892 31.6279L128.245 31.9814L128.599 31.6279C142.396 17.8463 156.412 3.84668 170.573 -10.291L171.026 -10.7422L170.479 -11.0732C157.111 -19.1473 141.232 -22.5927 126.107 -22.2822Z" fill="#1B1B1B" stroke="#292929"/>
<path d="M238.434 131.691C228.351 121.509 218.442 111.553 208.642 101.487C208.055 100.889 207.903 99.2611 208.258 98.4144C217.884 75.2691 217.877 52.1676 208.272 29.015C207.889 28.0953 208.106 26.329 208.75 25.6648C218.399 15.7746 228.163 6.00843 237.905 -3.77959C238.05 -3.92557 238.325 -3.93287 238.528 -4.00586C263.467 33.5112 265.068 90.5168 238.427 131.691H238.434Z" fill="#1B1B1B"/>
<path d="M238.307 -3.43262C262.842 33.7626 264.454 90.0341 238.345 130.89C228.414 120.863 218.654 111.054 209 101.139L208.999 101.138L208.934 101.06C208.783 100.852 208.649 100.471 208.594 99.9873C208.532 99.4491 208.586 98.9243 208.719 98.6074L208.72 98.6064C218.397 75.3382 218.39 52.0984 208.734 28.8232L208.733 28.8223C208.589 28.4751 208.541 27.9028 208.621 27.3115C208.703 26.7103 208.898 26.2306 209.109 26.0127L209.108 26.0117C218.749 16.1289 228.507 6.371 238.245 -3.41309C238.254 -3.4166 238.273 -3.42331 238.307 -3.43262Z" stroke="white" stroke-opacity="0.08"/>
<path d="M19.3277 131.691C-6.85293 91.3479 -6.01469 34.3457 19.2843 -4.00586C19.9925 -3.37129 20.7224 -2.79506 21.3727 -2.13861C30.3188 6.87671 39.2143 15.9431 48.2254 24.8782C49.8296 26.4683 50.1693 27.6645 49.2588 29.8453C39.8719 52.3253 39.9297 74.9001 49.1576 97.4019C50.097 99.6922 49.8658 100.976 48.1242 102.697C38.5061 112.223 29.0253 121.895 19.3277 131.691Z" fill="#1B1B1B"/>
<path d="M19.3896 -3.25293C19.9662 -2.75382 20.5062 -2.30324 21.0176 -1.78711V-1.78613C29.9609 7.22644 38.8601 16.2965 47.873 25.2334C48.6502 26.0037 49.0566 26.6175 49.1973 27.249C49.3368 27.8757 49.2335 28.6066 48.7969 29.6523C39.3582 52.2563 39.4179 74.9692 48.6953 97.5918C49.1506 98.7018 49.2863 99.4872 49.1553 100.169C49.041 100.763 48.7114 101.346 48.0684 102.038L47.7725 102.342C38.2972 111.726 28.9529 121.252 19.4102 130.895C-6.20938 90.9177 -5.38544 34.7614 19.3896 -3.25293Z" stroke="white" stroke-opacity="0.08"/>
</svg>
