<svg width="290" height="162" viewBox="0 0 290 162" fill="none" xmlns="http://www.w3.org/2000/svg">
<g opacity="0.5" clip-path="url(#clip0_2059_19088)">
<path opacity="0.75" d="M39.2734 55.0801C91.5999 -19.0411 199.992 -16.2173 248.688 54.7314C224.415 79.0056 200.12 103.288 175.738 127.663L175.385 128.017L175.737 128.37C200.218 152.924 224.46 177.239 249.039 201.898C223.255 236.09 189.443 255.134 146.356 255.798C101.653 256.491 66.4289 237.534 39.5576 202.297C64.1721 177.74 88.4783 153.491 112.842 129.178L113.196 128.824L112.842 128.47C88.0125 103.698 63.7031 79.4454 39.2734 55.0801ZM143.42 160.519C129.782 174.14 115.832 188.075 101.882 202.002L101.527 202.355L101.882 202.709C105.703 206.522 111.637 209.357 118.649 211.253C125.671 213.151 133.82 214.119 142.117 214.162C158.688 214.248 175.976 210.643 186.108 203.261L186.581 202.917L186.167 202.503C179.159 195.503 172.136 188.491 165.122 181.486C158.108 174.482 151.102 167.486 144.127 160.519L143.773 160.166L143.42 160.519ZM142.108 42.0342C126.987 42.3446 112.578 46.4106 102.152 53.4092L101.647 53.748L102.078 54.1777C116.043 68.1265 130.059 82.1264 143.893 95.9443L144.246 96.2979L144.6 95.9443C158.397 82.1627 172.413 68.1631 186.574 54.0254L187.027 53.5742L186.479 53.2432C173.112 45.1691 157.233 41.7237 142.108 42.0342Z" fill="#141414" stroke="#292929"/>
<path d="M254.434 196.007C244.351 185.825 234.442 175.869 224.642 165.804C224.055 165.205 223.903 163.577 224.258 162.731C233.884 139.585 233.877 116.484 224.272 93.3314C223.889 92.4118 224.106 90.6454 224.75 89.9812C234.399 80.091 244.163 70.3248 253.905 60.5368C254.05 60.3908 254.325 60.3835 254.528 60.3105C279.467 97.8276 281.068 154.833 254.427 196.007H254.434Z" fill="#141414"/>
<path d="M254.307 60.8838C278.842 98.079 280.454 154.351 254.345 195.206C244.414 185.179 234.654 175.371 225 165.455L224.999 165.454L224.934 165.376C224.783 165.169 224.649 164.787 224.594 164.304C224.532 163.765 224.586 163.241 224.719 162.924L224.72 162.923C234.397 139.655 234.39 116.415 224.734 93.1396L224.733 93.1387C224.589 92.7915 224.541 92.2192 224.621 91.6279C224.703 91.0267 224.898 90.547 225.109 90.3291L225.108 90.3281C234.749 80.4453 244.507 70.6874 254.245 60.9033C254.254 60.8998 254.273 60.8931 254.307 60.8838Z" stroke="white" stroke-opacity="0.08"/>
<path d="M35.3277 196.007C9.14707 155.664 9.98531 98.6621 35.2843 60.3105C35.9925 60.9451 36.7224 61.5213 37.3727 62.1778C46.3188 71.1931 55.2143 80.2595 64.2254 89.1946C65.8296 90.7847 66.1693 91.9809 65.2588 94.1618C55.8719 116.642 55.9297 139.216 65.1576 161.718C66.097 164.009 65.8658 165.292 64.1242 167.014C54.5061 176.54 45.0253 186.211 35.3277 196.007Z" fill="#141414"/>
<path d="M35.3896 61.0635C35.9662 61.5626 36.5062 62.0132 37.0176 62.5293V62.5303C45.9609 71.5428 54.8601 80.6129 63.873 89.5498C64.6502 90.3201 65.0566 90.9339 65.1973 91.5654C65.3368 92.1921 65.2335 92.923 64.7969 93.9688C55.3582 116.573 55.4179 139.286 64.6953 161.908C65.1506 163.018 65.2863 163.804 65.1553 164.485C65.041 165.079 64.7114 165.662 64.0684 166.354L63.7725 166.658C54.2972 176.043 44.9529 185.569 35.4102 195.211C9.79062 155.234 10.6146 99.0778 35.3896 61.0635Z" stroke="white" stroke-opacity="0.08"/>
</g>
<rect y="71" width="290" height="91" fill="url(#paint0_linear_2059_19088)"/>
<defs>
<linearGradient id="paint0_linear_2059_19088" x1="145" y1="71" x2="145" y2="162" gradientUnits="userSpaceOnUse">
<stop stop-color="#0F0F0F" stop-opacity="0"/>
<stop offset="1" stop-color="#0F0F0F"/>
</linearGradient>
<clipPath id="clip0_2059_19088">
<rect width="258" height="162" fill="white" transform="translate(16)"/>
</clipPath>
</defs>
</svg>
