<svg width="20" height="20" viewBox="0 0 20 20" fill="none" xmlns="http://www.w3.org/2000/svg">
<path d="M17.6606 9.14287C17.6917 9.42408 17.7077 9.70985 17.7077 9.99935C17.7077 14.2565 14.2565 17.7077 9.99935 17.7077C5.74215 17.7077 2.29102 14.2565 2.29102 9.99935C2.29102 5.74215 5.74215 2.29102 9.99935 2.29102C10.2888 2.29102 10.5746 2.30697 10.8558 2.33806M9.5716 5.62435C7.3553 5.8444 5.62435 7.71432 5.62435 9.98853C5.62435 12.4108 7.58796 14.3744 10.0102 14.3744C12.2843 14.3744 14.1542 12.6435 14.3743 10.4274M11.8743 8.12435H15.2493L18.3327 5.20768L15.6243 4.37435L14.791 1.66602L11.8743 4.74935V8.12435ZM11.8743 8.12435L9.58268 10.416" stroke="white" stroke-width="1.5"/>
</svg>
