<svg width="288" height="138" viewBox="0 0 288 138" fill="none" xmlns="http://www.w3.org/2000/svg">
<g opacity="0.5" clip-path="url(#clip0_261_18077)">
<path opacity="0.75" d="M84.2734 82.9199C136.6 157.041 244.992 154.217 293.688 83.2686C269.415 58.9944 245.12 34.7124 220.738 10.3369L220.385 9.9834L220.737 9.62988C245.218 -14.9236 269.46 -39.2393 294.039 -63.8984C268.255 -98.0898 234.443 -117.134 191.356 -117.798C146.653 -118.491 111.429 -99.5336 84.5576 -64.2969C109.172 -39.7398 133.478 -15.4913 157.842 8.82227L158.196 9.17578L157.842 9.53027C133.013 34.3019 108.703 58.5546 84.2734 82.9199ZM188.42 -22.5186C174.782 -36.1403 160.832 -50.075 146.882 -64.002L146.527 -64.3555L146.882 -64.709C150.703 -68.5216 156.637 -71.3574 163.649 -73.2529C170.671 -75.1509 178.82 -76.1192 187.117 -76.1621C203.688 -76.2477 220.976 -72.6431 231.108 -65.2607L231.581 -64.917L231.167 -64.5029C224.159 -57.5031 217.136 -50.4907 210.122 -43.4863C203.108 -36.482 196.102 -29.4856 189.127 -22.5186L188.773 -22.166L188.42 -22.5186ZM187.108 95.9658C171.987 95.6554 157.578 91.5894 147.152 84.5908L146.647 84.252L147.078 83.8223C161.043 69.8735 175.059 55.8736 188.893 42.0557L189.246 41.7021L189.6 42.0557C203.397 55.8373 217.413 69.8369 231.574 83.9746L232.027 84.4258L231.479 84.7568C218.112 92.8309 202.233 96.2763 187.108 95.9658Z" fill="#1B1B1B" stroke="#292929"/>
<path d="M299.434 -58.0071C289.351 -47.825 279.442 -37.869 269.642 -27.8037C269.055 -27.2051 268.903 -25.5775 269.258 -24.7308C278.884 -1.58549 278.877 21.516 269.272 44.6686C268.889 45.5882 269.106 47.3546 269.75 48.0188C279.399 57.909 289.163 67.6752 298.905 77.4632C299.05 77.6092 299.325 77.6165 299.528 77.6895C324.467 40.1724 326.068 -16.8332 299.427 -58.0071H299.434Z" fill="#1B1B1B"/>
<path d="M299.307 77.1162C323.842 39.921 325.454 -16.3505 299.345 -57.2061C289.414 -47.1789 279.654 -37.3705 270 -27.4551L269.999 -27.4541L269.934 -27.376C269.783 -27.1685 269.649 -26.787 269.594 -26.3037C269.532 -25.7655 269.586 -25.2407 269.719 -24.9238L269.72 -24.9229C279.397 -1.65456 279.39 21.5852 269.734 44.8604L269.733 44.8613C269.589 45.2085 269.541 45.7808 269.621 46.3721C269.703 46.9733 269.898 47.453 270.109 47.6709L270.108 47.6719C279.749 57.5547 289.507 67.3126 299.245 77.0967C299.254 77.1002 299.273 77.1069 299.307 77.1162Z" stroke="white" stroke-opacity="0.08"/>
<path d="M80.3277 -58.0071C54.1471 -17.6643 54.9853 39.3379 80.2843 77.6895C80.9925 77.0549 81.7224 76.4787 82.3727 75.8222C91.3188 66.8069 100.214 57.7405 109.225 48.8054C110.83 47.2153 111.169 46.0191 110.259 43.8382C100.872 21.3583 100.93 -1.21646 110.158 -23.7183C111.097 -26.0086 110.866 -27.2923 109.124 -29.0137C99.5061 -38.5396 90.0253 -48.2114 80.3277 -58.0071Z" fill="#1B1B1B"/>
<path d="M80.3896 76.9365C80.9662 76.4374 81.5062 75.9868 82.0176 75.4707V75.4697C90.9609 66.4572 99.8601 57.3871 108.873 48.4502C109.65 47.6799 110.057 47.0661 110.197 46.4346C110.337 45.8079 110.233 45.077 109.797 44.0312C100.358 21.4272 100.418 -1.28561 109.695 -23.9082C110.151 -25.0182 110.286 -25.8036 110.155 -26.4854C110.041 -27.0792 109.711 -27.6622 109.068 -28.3545L108.772 -28.6582C99.2972 -38.0426 89.9529 -47.5688 80.4102 -57.2109C54.7906 -17.2341 55.6146 38.9222 80.3896 76.9365Z" stroke="white" stroke-opacity="0.08"/>
</g>
<rect width="335" height="91" transform="matrix(1 0 0 -1 0 67)" fill="url(#paint0_linear_261_18077)"/>
<defs>
<linearGradient id="paint0_linear_261_18077" x1="167.5" y1="91" x2="167.5" y2="0" gradientUnits="userSpaceOnUse">
<stop stop-color="#141414"/>
<stop offset="1" stop-color="#141414" stop-opacity="0"/>
</linearGradient>
<clipPath id="clip0_261_18077">
<rect width="258" height="162" fill="white" transform="matrix(1 0 0 -1 61 138)"/>
</clipPath>
</defs>
</svg>
