<svg width="160" height="84" viewBox="0 0 160 84" fill="none" xmlns="http://www.w3.org/2000/svg">
<g opacity="0.3" clip-path="url(#clip0_496_19349)">
<path opacity="0.75" d="M23.2734 -22.9199C75.5999 -97.0411 183.992 -94.2173 232.688 -23.2686C208.415 1.00558 184.12 25.2876 159.738 49.6631L159.385 50.0166L159.737 50.3701C184.218 74.9236 208.46 99.2393 233.039 123.898C207.255 158.09 173.443 177.134 130.356 177.798C85.6526 178.491 50.4289 159.534 23.5576 124.297C48.1721 99.7398 72.4783 75.4913 96.8418 51.1777L97.1963 50.8242L96.8418 50.4697C72.0125 25.6981 47.7031 1.44539 23.2734 -22.9199ZM127.42 82.5186C113.782 96.1403 99.8322 110.075 85.8818 124.002L85.5273 124.355L85.8818 124.709C89.7026 128.522 95.6372 131.357 102.649 133.253C109.671 135.151 117.82 136.119 126.117 136.162C142.688 136.248 159.976 132.643 170.108 125.261L170.581 124.917L170.167 124.503C163.159 117.503 156.136 110.491 149.122 103.486C142.108 96.482 135.102 89.4856 128.127 82.5186L127.773 82.166L127.42 82.5186ZM126.108 -35.9658C110.987 -35.6554 96.5779 -31.5894 86.1523 -24.5908L85.6475 -24.252L86.0781 -23.8223C100.043 -9.87351 114.059 4.12642 127.893 17.9443L128.246 18.2979L128.6 17.9443C142.397 4.16275 156.413 -9.83691 170.574 -23.9746L171.027 -24.4258L170.479 -24.7568C157.112 -32.8309 141.233 -36.2763 126.108 -35.9658Z" fill="#141414" stroke="#292929"/>
<path d="M19.3277 118.007C-6.85293 77.6643 -6.01469 20.6621 19.2843 -17.6895C19.9925 -17.0549 20.7224 -16.4787 21.3727 -15.8222C30.3188 -6.80688 39.2143 2.25949 48.2254 11.1946C49.8296 12.7847 50.1693 13.9809 49.2588 16.1618C39.8719 38.6417 39.9297 61.2165 49.1576 83.7183C50.097 86.0086 49.8658 87.2923 48.1242 89.0137C38.5061 98.5396 29.0253 108.211 19.3277 118.007Z" fill="#141414"/>
<path d="M19.3896 -16.9365C19.9662 -16.4374 20.5062 -15.9868 21.0176 -15.4707V-15.4697C29.9609 -6.45716 38.8601 2.61289 47.873 11.5498C48.6502 12.3201 49.0566 12.9339 49.1973 13.5654C49.3368 14.1921 49.2335 14.923 48.7969 15.9688C39.3582 38.5728 39.4179 61.2856 48.6953 83.9082C49.1506 85.0182 49.2863 85.8036 49.1553 86.4854C49.041 87.0792 48.7114 87.6622 48.0684 88.3545L47.7725 88.6582C38.2972 98.0426 28.9529 107.569 19.4102 117.211C-6.20938 77.2341 -5.38544 21.0778 19.3896 -16.9365Z" stroke="white" stroke-opacity="0.08"/>
</g>
<defs>
<clipPath id="clip0_496_19349">
<rect width="258" height="162" fill="white" transform="translate(0 -78)"/>
</clipPath>
</defs>
</svg>
