<svg width="85" height="24" viewBox="0 0 85 24" fill="none" xmlns="http://www.w3.org/2000/svg">
<path d="M2.12665 5.16232C7.02265 -1.84868 17.2156 -1.5812 21.7697 5.13033C19.4977 7.41242 17.2237 9.6952 14.9416 11.9868C17.2332 14.2955 19.5025 16.5816 21.8036 18.9005C19.3892 22.1327 16.2163 23.9357 12.1703 23.9983C7.97309 24.0636 4.66793 22.2688 2.15176 18.9379C4.45627 16.6286 6.73162 14.3485 9.01239 12.0624C6.6882 9.73331 4.41286 7.45326 2.12598 5.16232H2.12665ZM15.8859 5.02551C13.4111 3.52408 10.0008 3.7412 8.07485 5.03981C9.37669 6.3459 10.6833 7.65676 11.9729 8.95061C13.2592 7.66017 14.5658 6.34931 15.8859 5.02551ZM8.05653 18.9475C9.4486 20.3427 13.9823 20.3597 15.8479 18.9944C14.5413 17.6836 13.2293 16.3679 11.9288 15.0632C10.6575 16.3387 9.35702 17.6434 8.05653 18.9475Z" fill="#E6E6E6"/>
<path d="M47.9729 11.0924C47.9403 13.2704 47.6228 15.0229 46.5001 16.5359C45.3678 18.0625 43.8313 18.9079 41.9663 19.1597C40.6787 19.3333 39.3945 19.3013 38.1442 18.9215C35.8913 18.2368 34.3859 16.7483 33.6919 14.5043C33.0468 12.4189 33.0678 10.2961 33.7238 8.21476C34.5901 5.46645 36.9448 3.71183 39.8077 3.55937C41.1204 3.48927 42.41 3.56549 43.6338 4.06847C45.9981 5.0397 47.3142 6.86783 47.7755 9.3439C47.9037 10.0313 47.9342 10.7364 47.9729 11.0938V11.0924ZM44.817 11.4865C44.7301 10.7344 44.6969 10.1205 44.5836 9.52222C44.2051 7.51781 42.8116 6.29135 40.8578 6.20627C38.8925 6.12051 37.3811 7.09243 36.8098 8.89061C36.297 10.5064 36.2861 12.1541 36.7956 13.7754C37.3634 15.581 38.8389 16.6142 40.7066 16.5836C42.5328 16.5536 43.95 15.4796 44.4479 13.6597C44.6521 12.913 44.7118 12.1269 44.8163 11.4865H44.817Z" fill="#E6E6E6"/>
<path d="M62.5 20.9916C62.9443 21.0242 63.3575 21.0787 63.7706 21.0794C64.8696 21.0807 65.8594 20.1524 65.9455 19.0525C65.9537 18.9484 65.8974 18.8347 65.858 18.7312C64.5589 15.2969 63.2584 11.8632 61.9586 8.4288C61.9077 8.29404 61.867 8.15519 61.8066 7.97279C62.5427 7.97279 63.2408 7.96939 63.9382 7.97415C64.2645 7.97687 64.6654 7.88431 64.894 8.03949C65.1037 8.18242 65.1308 8.59963 65.2319 8.89842C65.953 11.0389 66.6728 13.1808 67.3939 15.3214C67.4245 15.4132 67.4631 15.5017 67.531 15.676C67.7691 14.9586 67.9821 14.3222 68.1917 13.6845C68.7833 11.8815 69.3762 10.0793 69.9596 8.27362C70.0275 8.06331 70.1075 7.96122 70.3524 7.9653C71.2547 7.98164 72.157 7.97143 73.1101 7.97143C72.8944 8.5622 72.6936 9.11009 72.4934 9.65867C71.1997 13.2026 69.9081 16.7472 68.6116 20.2905C68.499 20.5982 68.3627 20.8963 68.2358 21.1985C67.6246 22.6516 66.4856 23.3533 64.9612 23.4261C64.3018 23.4581 63.6349 23.3608 62.9728 23.305C62.8928 23.2981 62.7666 23.1892 62.7564 23.1151C62.6601 22.4127 62.5841 21.7069 62.5013 20.9909L62.5 20.9916Z" fill="#E6E6E6"/>
<path d="M50.2833 7.9968H52.9867V9.50844C53.1272 9.35871 53.2045 9.27636 53.2812 9.194C54.5817 7.79806 56.4344 7.34614 58.1724 7.99817C59.3976 8.45758 60.0495 9.36415 60.1934 10.6451C60.2503 11.1501 60.2673 11.6626 60.2693 12.1717C60.2775 14.3149 60.2727 16.4582 60.2727 18.6008C60.2727 18.7219 60.2727 18.8437 60.2727 18.9846H57.3604C57.3543 18.8641 57.3427 18.7457 57.3427 18.6266C57.3414 16.8693 57.3475 15.1112 57.3393 13.3539C57.3366 12.7992 57.3136 12.2431 57.2708 11.6898C57.1697 10.3789 56.1806 9.71127 54.908 10.0795C53.9433 10.3585 53.3517 11.0963 53.2866 12.1853C53.2316 13.1123 53.2174 14.042 53.2079 14.971C53.195 16.1955 53.1964 17.4206 53.2113 18.645C53.2147 18.9322 53.1217 19.0152 52.8443 19.0098C52.0872 18.9941 51.3301 18.9982 50.573 19.0084C50.3518 19.0112 50.2474 18.9642 50.2481 18.7117C50.2548 15.2195 50.2521 11.7266 50.2542 8.23434C50.2542 8.15811 50.2725 8.08188 50.2833 7.9968Z" fill="#E6E6E6"/>
<path d="M73.6902 7.97384C74.8788 7.97384 75.9961 7.96771 77.1141 7.98405C77.2152 7.98541 77.3448 8.10792 77.4106 8.20729C77.9384 9.01109 78.4539 9.82306 78.9729 10.6316C79.0333 10.7262 79.0964 10.8188 79.1832 10.9502C79.3569 10.6997 79.5177 10.4724 79.6737 10.243C80.1377 9.55966 80.5957 8.87225 81.0685 8.19504C81.1363 8.09771 81.2679 7.98473 81.3717 7.98337C82.4436 7.96771 83.5155 7.97384 84.6681 7.97384C83.4063 9.74411 82.1824 11.4606 80.9484 13.1921C82.2916 15.1101 83.6308 17.0226 85.0005 18.9793C84.8438 18.9909 84.7474 19.0038 84.6511 19.0038C83.679 19.0052 82.7075 18.997 81.7354 19.01C81.4884 19.0134 81.3453 18.9256 81.215 18.7228C80.6167 17.7896 80.0041 16.8654 79.3962 15.9377C79.3359 15.8451 79.2701 15.7566 79.1792 15.6273C78.8562 16.114 78.5523 16.5713 78.2497 17.0294C77.8631 17.614 77.4832 18.2034 77.0877 18.782C77.0212 18.8793 76.8882 18.993 76.7844 18.9943C75.7241 19.01 74.6631 19.0038 73.5254 19.0038C73.6136 18.8582 73.6672 18.7568 73.7323 18.6635C74.8849 17.0117 76.0314 15.3558 77.1989 13.7148C77.4072 13.4221 77.4207 13.2295 77.2016 12.9287C76.0829 11.3919 74.9914 9.83599 73.8904 8.28556C73.8334 8.20525 73.7832 8.11949 73.6896 7.97384H73.6902Z" fill="#E6E6E6"/>
<path d="M22.1174 18.3486C21.1731 17.3991 20.245 16.4708 19.3271 15.5322C19.2722 15.4764 19.258 15.3246 19.2912 15.2457C20.1928 13.0874 20.1921 10.9333 19.2925 8.7744C19.2566 8.68865 19.2769 8.52394 19.3373 8.462C20.2409 7.53977 21.1554 6.62911 22.0679 5.71641C22.0814 5.7028 22.1072 5.70212 22.1262 5.69531C24.4619 9.19366 24.6119 14.5092 22.1167 18.3486H22.1174Z" fill="#E6E6E6"/>
<path d="M1.81448 18.3418C-0.643352 14.5773 -0.564658 9.25835 1.81041 5.67969C1.8769 5.7389 1.94541 5.79267 2.00647 5.85392C2.84633 6.69516 3.68143 7.54116 4.5274 8.37492C4.678 8.52329 4.70989 8.63491 4.62441 8.83841C3.74317 10.9361 3.7486 13.0426 4.61491 15.1422C4.7031 15.356 4.68139 15.4757 4.5179 15.6364C3.61495 16.5253 2.72489 17.4277 1.81448 18.3418Z" fill="#E6E6E6"/>
</svg>
