<svg width="136" height="140" viewBox="0 0 136 140" fill="none" xmlns="http://www.w3.org/2000/svg">
<path d="M24.6481 30.0879C24.9783 30.3848 25.3186 30.6544 25.6219 30.9615C29.7938 35.1805 33.9426 39.4235 38.1449 43.605C38.8931 44.3491 39.0514 44.9094 38.6268 45.93C34.2492 56.4503 34.2762 67.0151 38.5797 77.5457C39.0177 78.6174 38.91 79.2184 38.0978 80.0239C33.6124 84.4819 29.1909 89.008 24.6684 93.5923H10.0135C-2.19585 74.7124 -1.80498 48.036 9.99324 30.0879H24.6481Z" fill="#0F0F0F"/>
<path d="M24.6481 30.0879C24.9783 30.3848 25.3186 30.6544 25.6219 30.9615C29.7939 35.1805 33.9426 39.4235 38.1449 43.605C38.8931 44.3491 39.0514 44.9094 38.6268 45.93C34.2492 56.4503 34.2762 67.0151 38.5797 77.5457C39.0177 78.6174 38.91 79.2184 38.0978 80.0239C33.6124 84.4819 29.1909 89.008 24.6684 93.5923H10.0135C-2.19585 74.7124 -1.80498 48.036 9.99324 30.0879H24.6481Z" stroke="#353535" stroke-width="0.610619" stroke-linejoin="round"/>
<path d="M10.0135 93.5923C-2.19588 74.7123 -1.80496 48.036 9.9933 30.0879C10.3236 30.3849 10.6639 30.6545 10.9672 30.9617C15.1392 35.1808 19.2877 39.4238 23.49 43.6053C24.2381 44.3494 24.3965 44.9092 23.9719 45.9299C19.5943 56.4502 19.6213 67.0149 23.9247 77.5455C24.3628 78.6174 24.255 79.2181 23.4428 80.0237C18.9574 84.4817 14.536 89.008 10.0135 93.5923Z" fill="#1B1B1B"/>
<path d="M10.0135 93.5923C-2.19588 74.7123 -1.80496 48.036 9.9933 30.0879C10.3236 30.3849 10.6639 30.6545 10.9672 30.9617C15.1392 35.1808 19.2877 39.4238 23.49 43.6053C24.2381 44.3494 24.3965 44.9092 23.9719 45.9299C19.5943 56.4502 19.6213 67.0149 23.9247 77.5455C24.3628 78.6174 24.255 79.2181 23.4428 80.0237C18.9574 84.4817 14.536 89.008 10.0135 93.5923Z" fill="#0F0F0F" fill-opacity="0.25"/>
<path fill-rule="evenodd" clip-rule="evenodd" d="M74.8848 2.00581C94.0296 1.79152 113.1 10.5012 124.785 27.5839C113.364 38.964 101.932 50.3479 90.4598 61.7756C101.98 73.2881 113.388 84.6889 124.956 96.2523C112.818 112.37 96.868 121.361 76.5288 121.674H64.3164C50.693 121.884 38.9399 118.226 28.916 111.137H26.4711C20.971 107.247 15.9912 102.324 11.5098 96.4389L13.1353 94.8235C24.1654 83.8592 35.07 73.0195 45.999 62.1524C34.3152 50.5381 22.8766 39.1679 11.3804 27.7437H11.3839C15.7402 21.5557 20.9309 16.5046 26.6506 12.5676H29.0931C39.3702 5.49411 51.3562 2.01726 63.283 2.00224L74.8848 2.00581ZM55.8483 96.4861L55.8137 96.5206C54.4799 97.848 53.1391 99.1814 51.794 100.52C61.5885 103.02 75.866 101.757 82.8038 96.7204C78.2754 92.2137 73.7343 87.6956 69.2079 83.192C64.7857 87.5929 60.3174 92.0406 55.8483 96.4861ZM82.9946 27.0615C73.6457 21.4351 61.6411 20.6486 52.1428 23.353L69.4304 40.5577C73.9123 36.0975 78.4373 31.5946 82.9946 27.0615Z" fill="#0F0F0F"/>
<path d="M124.785 27.5839C113.1 10.5012 94.0296 1.79152 74.8848 2.00581L63.283 2.00224C51.3562 2.01726 39.3702 5.49411 29.0931 12.5676H26.6506C20.9309 16.5046 15.7402 21.5557 11.3839 27.7437H11.3804C22.8766 39.1679 34.3152 50.5381 45.999 62.1524C35.07 73.0195 24.1654 83.8592 13.1353 94.8236L11.5098 96.4389C15.9912 102.324 20.971 107.247 26.4711 111.137H28.916C38.9399 118.226 50.693 121.884 64.3164 121.674H76.5288C96.868 121.361 112.818 112.37 124.956 96.2523M124.785 27.5839C113.364 38.964 101.932 50.3479 90.4598 61.7756M124.785 27.5839L110.131 27.5845L75.8055 61.7759M90.4598 61.7756C101.98 73.2881 113.388 84.6889 124.956 96.2523M90.4598 61.7756L75.8055 61.7759M124.956 96.2523L110.301 96.2525L75.8055 61.7759M55.8483 96.4861L55.8137 96.5206C54.4799 97.848 53.1391 99.1814 51.794 100.52C61.5885 103.02 75.866 101.757 82.8038 96.7204C78.2754 92.2137 73.7343 87.6956 69.2079 83.192C64.7857 87.5929 60.3174 92.0406 55.8483 96.4861ZM82.9946 27.0615C73.6457 21.4351 61.6411 20.6486 52.1428 23.353L69.4304 40.5577C73.9123 36.0975 78.4373 31.5946 82.9946 27.0615Z" stroke="#353535" stroke-width="0.610619" stroke-linejoin="round"/>
<path d="M43.6357 96.4864C50.2887 103.101 71.2152 103.503 81.3212 97.676C85.8673 102.2 90.4394 106.749 95.0089 111.296H97.4513C88.0272 117.893 77.029 121.479 64.3163 121.674C50.6921 121.884 38.9383 118.226 28.9141 111.136C33.851 106.225 38.7677 101.331 43.6011 96.521L43.6357 96.4864Z" fill="#1B1B1B"/>
<path d="M43.6357 96.4864C50.2887 103.101 71.2152 103.503 81.3212 97.676C85.8673 102.2 90.4394 106.749 95.0089 111.296H97.4513C88.0272 117.893 77.029 121.479 64.3163 121.674C50.6921 121.884 38.9383 118.226 28.9141 111.136C33.851 106.225 38.7677 101.331 43.6011 96.521L43.6357 96.4864Z" fill="#0F0F0F" fill-opacity="0.25"/>
<path d="M29.0936 12.5685C49.81 -1.69086 77.4688 -1.337 97.5909 12.5334H95.1514C90.538 17.1233 85.9622 21.6774 81.4357 26.1823C69.1553 19.6739 53.0112 20.9233 43.7275 27.1328L29.0936 12.5685Z" fill="#1B1B1B"/>
<path d="M29.0936 12.5685C49.81 -1.69086 77.4688 -1.337 97.5909 12.5334H95.1514C90.538 17.1233 85.9622 21.6774 81.4357 26.1823C69.1553 19.6739 53.0112 20.9233 43.7275 27.1328L29.0936 12.5685Z" fill="#0F0F0F" fill-opacity="0.25"/>
<path d="M75.8051 61.7754C87.2775 50.3477 98.709 38.9641 110.13 27.584C105.965 21.4951 100.862 16.4698 95.1516 12.5332C90.2379 17.4221 85.3667 22.2699 80.5523 27.0613C73.9179 33.6605 67.3517 40.1954 60.8877 46.6284L60.8815 46.6346L41.2857 27.1326L26.6504 12.5673C20.9305 16.5043 15.7401 21.5554 11.3838 27.7435H11.3804C22.8766 39.1678 34.3149 50.5378 45.9987 62.1521C35.0777 73.0113 24.1813 83.8427 13.1594 94.799L11.51 96.4386C15.9914 102.324 20.9707 107.247 26.4709 111.137C31.4155 106.217 36.3401 101.316 41.1808 96.4989L41.1936 96.4862C47.7249 89.9894 54.2562 83.4893 60.6413 77.1348L60.6598 77.1164C67.1974 83.6228 73.793 90.1834 80.3613 96.7203C85.2235 101.559 90.1178 106.428 95.009 111.295C100.663 107.337 105.75 102.296 110.301 96.252C98.7328 84.6885 87.3252 73.2879 75.8051 61.7754Z" fill="#1B1B1B"/>
<path d="M113.471 93.5923H113.467L113.468 93.5899L113.471 93.5923Z" fill="#0F0F0F"/>
<path d="M126.294 93.5923H126.29L126.291 93.5899L126.294 93.5923Z" fill="#0F0F0F"/>
<path d="M126.047 30.194C137.677 47.751 138.714 74.3212 126.291 93.5899L113.471 93.5923L113.468 93.5899C108.767 88.8257 104.147 84.1671 99.5773 79.4574C99.3037 79.1773 99.2323 78.4154 99.3978 78.0191C103.887 67.1874 103.884 56.3763 99.405 45.5412C99.226 45.1108 99.3274 44.2844 99.628 43.9735C104.127 39.3451 108.681 34.7746 113.224 30.194C113.291 30.1257 113.42 30.122 113.515 30.0879L126.047 30.194Z" fill="#0F0F0F"/>
<path d="M113.471 93.5923C108.768 88.8272 104.147 84.1679 99.577 79.4574C99.3034 79.1773 99.2325 78.4156 99.398 78.0194C103.887 67.1876 103.884 56.3764 99.4047 45.5413C99.2257 45.1109 99.327 44.2842 99.6277 43.9734C104.127 39.3449 108.681 34.7745 113.224 30.1938C113.291 30.1255 113.42 30.122 113.514 30.0879C125.145 47.6455 125.891 74.3234 113.467 93.5923H113.471Z" fill="#1B1B1B"/>
<path d="M113.471 93.5923C108.768 88.8272 104.147 84.1679 99.577 79.4574C99.3034 79.1773 99.2325 78.4156 99.398 78.0194C103.887 67.1876 103.884 56.3764 99.4047 45.5413C99.2257 45.1109 99.327 44.2842 99.6277 43.9734C104.127 39.3449 108.681 34.7745 113.224 30.1938C113.291 30.1255 113.42 30.122 113.514 30.0879C125.145 47.6455 125.891 74.3234 113.467 93.5923H113.471Z" fill="#0F0F0F" fill-opacity="0.25"/>
<path d="M10.0135 93.5923C-2.19588 74.7123 -1.80496 48.036 9.9933 30.0879C10.3236 30.3849 10.6639 30.6545 10.9672 30.9617C15.1392 35.1808 19.2877 39.4238 23.49 43.6053C24.2381 44.3494 24.3965 44.9092 23.9719 45.9299C19.5943 56.4502 19.6213 67.0149 23.9247 77.5455C24.3628 78.6174 24.255 79.2181 23.4428 80.0237C18.9574 84.4817 14.536 89.008 10.0135 93.5923Z" stroke="#353535" stroke-width="0.610619" stroke-linejoin="round"/>
<path d="M113.47 93.5923H113.467C125.891 74.3234 125.144 47.6455 113.514 30.0879C113.42 30.122 113.291 30.1255 113.224 30.1938" stroke="#353535" stroke-width="0.610619" stroke-linejoin="round"/>
<path d="M113.471 93.5923H113.467L113.468 93.5899M113.471 93.5923L113.468 93.5899M113.471 93.5923L126.291 93.5899C138.714 74.3212 137.677 47.751 126.047 30.194L113.515 30.0879C113.42 30.122 113.291 30.1257 113.224 30.194C108.681 34.7746 104.127 39.3451 99.628 43.9735C99.3274 44.2844 99.226 45.1108 99.405 45.5412C103.884 56.3763 103.887 67.1874 99.3978 78.0191C99.2323 78.4154 99.3037 79.1773 99.5773 79.4574C104.147 84.1671 108.767 88.8257 113.468 93.5899" stroke="#353535" stroke-width="0.610619" stroke-linejoin="round"/>
<path d="M43.6358 96.4864C50.2888 103.101 71.2153 103.503 81.3213 97.676C85.8674 102.2 90.4395 106.749 95.009 111.296H97.4515C88.0273 117.893 77.0292 121.479 64.3164 121.674C50.6922 121.884 38.9384 118.226 28.9142 111.136C33.8511 106.225 38.7679 101.331 43.6013 96.521L43.6358 96.4864Z" stroke="#353535" stroke-width="0.610619" stroke-linejoin="round"/>
<path d="M29.0937 12.5685C49.8101 -1.69086 77.469 -1.337 97.591 12.5334H95.1515C90.5382 17.1233 85.9623 21.6774 81.4358 26.1823C69.1554 19.6739 53.0114 20.9233 43.7277 27.1328L29.0937 12.5685Z" stroke="#353535" stroke-width="0.610619" stroke-linejoin="round"/>
<path d="M41.1941 96.4862C47.7318 89.9832 54.2694 83.4768 60.6604 77.1164C67.198 83.6228 73.7936 90.1834 80.3619 96.7203C85.2241 101.559 90.1183 106.428 95.0096 111.295C100.663 107.337 105.75 102.296 110.301 96.252C98.7334 84.6885 87.3258 73.2879 75.8057 61.7754C87.2781 50.3477 98.7095 38.9641 110.131 27.584C105.966 21.4951 100.863 16.4698 95.1522 12.5332C90.2384 17.4221 85.3673 22.2699 80.5529 27.0613C73.9164 33.6627 67.348 40.1996 60.882 46.6346C54.399 40.1826 47.8307 33.6457 41.2862 27.1326L26.6509 12.5673C20.9311 16.5043 15.7406 21.5554 11.3843 27.7435C22.8806 39.1678 34.3155 50.5378 45.9993 62.1521C34.5337 73.5527 23.0954 84.9227 11.5105 96.4386C15.992 102.324 20.9712 107.247 26.4714 111.137C31.4204 106.213 36.3493 101.308 41.1941 96.4862ZM41.1941 96.4862L41.248 96.4326" stroke="#353535" stroke-width="0.610619" stroke-linejoin="round"/>
<rect x="11.3804" y="136.336" width="113.575" height="3.66372" rx="1.83186" fill="#0F0F0F"/>
</svg>
