<svg width="20" height="20" viewBox="0 0 20 20" fill="none" xmlns="http://www.w3.org/2000/svg">
<path d="M5.83333 3.125V5.83333M5.83333 5.83333V8.54167M5.83333 5.83333H3.125M5.83333 5.83333H8.54167M16.0817 12.2516L14.1667 14.1667M14.1667 14.1667L12.2516 16.0817M14.1667 14.1667L12.2516 12.2516M14.1667 14.1667L16.0817 16.0817M14.1667 8.54167C12.6709 8.54167 11.4583 7.3291 11.4583 5.83333C11.4583 4.33756 12.6709 3.125 14.1667 3.125C15.6624 3.125 16.875 4.33756 16.875 5.83333C16.875 7.3291 15.6624 8.54167 14.1667 8.54167ZM3.125 11.4583H8.54167V16.875H3.125V11.4583Z" stroke="#E6E6E6" stroke-width="1.5" stroke-linecap="square"/>
</svg>
