<svg width="20" height="20" viewBox="0 0 20 20" fill="none" xmlns="http://www.w3.org/2000/svg">
<path d="M9.79167 14.791H16.875M9.79167 5.20768H16.875M6.45833 5.20768C6.45833 6.12816 5.71214 6.87435 4.79167 6.87435C3.87119 6.87435 3.125 6.12816 3.125 5.20768C3.125 4.28721 3.87119 3.54102 4.79167 3.54102C5.71214 3.54102 6.45833 4.28721 6.45833 5.20768ZM6.45833 14.791C6.45833 15.7115 5.71214 16.4577 4.79167 16.4577C3.87119 16.4577 3.125 15.7115 3.125 14.791C3.125 13.8705 3.87119 13.1243 4.79167 13.1243C5.71214 13.1243 6.45833 13.8705 6.45833 14.791Z" stroke="#808080" stroke-width="1.5" stroke-linecap="square"/>
</svg>
