<svg width="20" height="20" viewBox="0 0 20 20" fill="none" xmlns="http://www.w3.org/2000/svg">
<path d="M2.08398 12.084L1.55365 11.5537L1.02332 12.084L1.55365 12.6143L2.08398 12.084ZM7.91732 17.9173L7.38699 18.4476L7.91732 18.978L8.44765 18.4476L7.91732 17.9173ZM17.9173 7.91732L18.4476 8.44765L18.978 7.91732L18.4476 7.38699L17.9173 7.91732ZM12.084 2.08398L12.6143 1.55365L12.084 1.02332L11.5537 1.55365L12.084 2.08398ZM8.42865 4.67865L7.89832 5.20898L8.95898 6.26964L9.48931 5.73931L8.42865 4.67865ZM5.73931 9.48931L6.26964 8.95898L5.20898 7.89832L4.67865 8.42865L5.73931 9.48931ZM14.262 10.512L13.7317 11.0423L14.7923 12.103L15.3226 11.5726L14.262 10.512ZM11.5726 15.3226L12.103 14.7923L11.0423 13.7317L10.512 14.262L11.5726 15.3226ZM6.97032 11.9703L6.43999 12.5007L7.50065 13.5613L8.03098 13.031L6.97032 11.9703ZM13.031 8.03098L13.5613 7.50065L12.5007 6.43999L11.9703 6.97032L13.031 8.03098ZM2.08398 12.084L1.55365 12.6143L7.38699 18.4476L7.91732 17.9173L8.44765 17.387L2.61431 11.5537L2.08398 12.084ZM17.9173 7.91732L18.4476 7.38699L12.6143 1.55365L12.084 2.08398L11.5537 2.61431L17.387 8.44765L17.9173 7.91732ZM12.084 2.08398L11.5537 1.55365L8.42865 4.67865L8.95898 5.20898L9.48931 5.73931L12.6143 2.61431L12.084 2.08398ZM5.20898 8.95898L4.67865 8.42865L1.55365 11.5537L2.08398 12.084L2.61431 12.6143L5.73931 9.48931L5.20898 8.95898ZM14.7923 11.0423L15.3226 11.5726L18.4476 8.44765L17.9173 7.91732L17.387 7.38699L14.262 10.512L14.7923 11.0423ZM7.91732 17.9173L8.44765 18.4476L11.5726 15.3226L11.0423 14.7923L10.512 14.262L7.38699 17.387L7.91732 17.9173ZM7.50065 12.5007L8.03098 13.031L13.031 8.03098L12.5007 7.50065L11.9703 6.97032L6.97032 11.9703L7.50065 12.5007Z" fill="#808080"/>
</svg>
