<svg width="20" height="20" viewBox="0 0 20 20" fill="none" xmlns="http://www.w3.org/2000/svg">
<path d="M7 4L10 7M10 7L13 4M10 7V1" stroke="#E6E6E6" stroke-width="1.5"/>
<circle cx="6.5" cy="13.5" r="4.5" stroke="#E6E6E6" stroke-width="1.5"/>
<path d="M12.3353 17.8467C13.0021 18.0253 13.7009 18.0482 14.3779 17.9135C15.0549 17.7789 15.6918 17.4903 16.2394 17.0701C16.787 16.6499 17.2307 16.1094 17.5359 15.4903C17.8412 14.8712 18 14.1902 18 13.5C18 12.8098 17.8412 12.1288 17.5359 11.5097C17.2307 10.8906 16.787 10.3501 16.2394 9.92991C15.6918 9.50972 15.0549 9.22113 14.3779 9.08647C13.7009 8.95181 13.0021 8.97469 12.3353 9.15333" stroke="#E6E6E6" stroke-width="1.5"/>
</svg>
