<svg width="20" height="20" viewBox="0 0 20 20" fill="none" xmlns="http://www.w3.org/2000/svg">
<path d="M15.4504 4.54874L14.9201 5.07907L14.9201 5.07907L15.4504 4.54874ZM15.4504 15.45L14.9201 14.9196L14.9201 14.9196L15.4504 15.45ZM4.54923 15.45L5.07956 14.9196L5.07956 14.9196L4.54923 15.45ZM4.54923 4.54874L5.07955 5.07907L5.07956 5.07907L4.54923 4.54874ZM13.1648 8.67961L13.5117 8.01467L12.1818 7.32082L11.8349 7.98576L13.1648 8.67961ZM15.4504 15.45L14.9201 14.9196C12.2027 17.637 7.79694 17.637 5.07956 14.9196L4.54923 15.45L4.01889 15.9803C7.32207 19.2835 12.6776 19.2835 15.9808 15.9803L15.4504 15.45ZM4.54923 4.54874L5.07956 5.07907C7.79696 2.36166 12.2027 2.36167 14.9201 5.07907L15.4504 4.54874L15.9808 4.01841C12.6776 0.715217 7.32208 0.715219 4.0189 4.01841L4.54923 4.54874ZM9.99984 13.1243L10.6648 13.4713L13.1648 8.67961L12.4998 8.33268L11.8349 7.98576L9.3349 12.7774L9.99984 13.1243ZM2.9511 13.1243V13.8743H9.99984V13.1243V12.3743H2.9511V13.1243ZM4.54923 15.45L5.07956 14.9196C4.45428 14.2944 3.97381 13.5811 3.6368 12.8205L2.9511 13.1243L2.26539 13.4282C2.67602 14.3549 3.26097 15.2224 4.0189 15.9803L4.54923 15.45ZM2.9511 13.1243L3.6368 12.8205C2.50492 10.2659 2.9873 7.17131 5.07955 5.07907L4.54923 4.54874L4.0189 4.01841C1.47376 6.56353 0.890721 10.3256 2.26539 13.4282L2.9511 13.1243ZM9.99984 13.1243V13.8743H17.0486V13.1243V12.3743H9.99984V13.1243ZM15.4504 4.54874L14.9201 5.07907C17.0124 7.17132 17.4947 10.2659 16.3629 12.8205L17.0486 13.1243L17.7343 13.4282C19.109 10.3256 18.5259 6.56354 15.9808 4.01841L15.4504 4.54874ZM17.0486 13.1243L16.3629 12.8205C16.0259 13.5811 15.5454 14.2944 14.9201 14.9196L15.4504 15.45L15.9808 15.9803C16.7387 15.2224 17.3237 14.3549 17.7343 13.4282L17.0486 13.1243Z" fill="#808080"/>
</svg>
