<svg width="20" height="20" viewBox="0 0 20 20" fill="none" xmlns="http://www.w3.org/2000/svg">
<path d="M15.4509 4.54874L14.9206 5.07907L14.9206 5.07907L15.4509 4.54874ZM15.4509 15.45L14.9206 14.9196L14.9206 14.9196L15.4509 15.45ZM4.54971 15.45L5.08005 14.9196L5.08004 14.9196L4.54971 15.45ZM4.54971 4.54874L5.08004 5.07907L5.08004 5.07907L4.54971 4.54874ZM13.1653 8.67961L13.5122 8.01467L12.1823 7.32082L11.8354 7.98576L13.1653 8.67961ZM15.4509 15.45L14.9206 14.9196C12.2032 17.637 7.79743 17.637 5.08005 14.9196L4.54971 15.45L4.01938 15.9803C7.32256 19.2835 12.6781 19.2835 15.9813 15.9803L15.4509 15.45ZM4.54971 4.54874L5.08004 5.07907C7.79745 2.36166 12.2032 2.36167 14.9206 5.07907L15.4509 4.54874L15.9813 4.01841C12.6781 0.715217 7.32257 0.715219 4.01938 4.01841L4.54971 4.54874ZM10.0003 13.1243L10.6653 13.4713L13.1653 8.67961L12.5003 8.33268L11.8354 7.98576L9.33539 12.7774L10.0003 13.1243ZM2.95159 13.1243V13.8743H10.0003V13.1243V12.3743H2.95159V13.1243ZM4.54971 15.45L5.08004 14.9196C4.45476 14.2944 3.9743 13.5811 3.63729 12.8205L2.95159 13.1243L2.26588 13.4282C2.67651 14.3549 3.26146 15.2224 4.01938 15.9803L4.54971 15.45ZM2.95159 13.1243L3.63729 12.8205C2.50541 10.2659 2.98779 7.17131 5.08004 5.07907L4.54971 4.54874L4.01939 4.01841C1.47425 6.56353 0.891209 10.3256 2.26588 13.4282L2.95159 13.1243ZM10.0003 13.1243V13.8743H17.0491V13.1243V12.3743H10.0003V13.1243ZM15.4509 4.54874L14.9206 5.07907C17.0129 7.17132 17.4952 10.2659 16.3634 12.8205L17.0491 13.1243L17.7348 13.4282C19.1094 10.3256 18.5264 6.56354 15.9813 4.01841L15.4509 4.54874ZM17.0491 13.1243L16.3634 12.8205C16.0264 13.5811 15.5459 14.2944 14.9206 14.9196L15.4509 15.45L15.9813 15.9803C16.7392 15.2224 17.3241 14.3549 17.7348 13.4282L17.0491 13.1243Z" fill="#808080"/>
</svg>
