<svg width="20" height="20" viewBox="0 0 20 20" fill="none" xmlns="http://www.w3.org/2000/svg">
<path d="M8.38462 14L7.84139 14.5171L8.38462 15.0878L8.92784 14.5171L8.38462 14ZM16.5432 6.51711L17.0603 5.97388L15.9739 4.93966L15.4568 5.48289L16.5432 6.51711ZM5.54323 9.92733L5.02612 9.38411L3.93966 10.4183L4.45677 10.9616L5.54323 9.92733ZM8.38462 14L8.92784 14.5171L16.5432 6.51711L16 6L15.4568 5.48289L7.84139 13.4829L8.38462 14ZM5 10.4444L4.45677 10.9616L7.84139 14.5171L8.38462 14L8.92784 13.4829L5.54323 9.92733L5 10.4444Z" fill="#0CCD32"/>
</svg>
