<svg width="20" height="20" viewBox="0 0 20 20" fill="none" xmlns="http://www.w3.org/2000/svg">
<path fill-rule="evenodd" clip-rule="evenodd" d="M3.10538 9.11763C7.39431 7.26765 10.2612 6.07193 11.7062 5.48535C15.7887 3.81585 16.6373 3.52256 17.1878 3.5C17.3024 3.5 17.5777 3.52256 17.7611 3.65793C17.8988 3.77073 17.9446 3.92865 17.9676 4.04146C17.9905 4.15426 18.0134 4.40243 17.9905 4.60548C17.7611 6.88411 16.8208 12.4566 16.3162 15.006C16.1098 16.0889 15.697 16.4499 15.307 16.495C14.4584 16.5627 13.7933 15.931 12.9676 15.4121C11.6832 14.5773 10.9493 14.0584 9.68786 13.2462C8.24292 12.2987 9.18328 11.7798 10.009 10.945C10.2154 10.7194 13.9997 7.35789 14.0685 7.04204C14.0685 6.99692 14.0915 6.86155 13.9997 6.79387C13.908 6.72619 13.7933 6.74875 13.7016 6.77131C13.564 6.79387 11.4998 8.14751 7.48605 10.8097C6.88973 11.2158 6.36221 11.3963 5.88057 11.3963C5.35305 11.3963 4.34389 11.103 3.58702 10.8548C2.6696 10.5615 1.93567 10.4036 2.00447 9.90725C2.05034 9.65908 2.41731 9.38836 3.10538 9.11763Z" fill="#808080"/>
</svg>
