<svg width="20" height="14" viewBox="0 0 20 14" fill="none" xmlns="http://www.w3.org/2000/svg">
<rect width="20" height="14" rx="2" fill="#E6E6E6"/>
<mask id="mask0_45_1105" style="mask-type:luminance" maskUnits="userSpaceOnUse" x="0" y="0" width="20" height="14">
<rect width="20" height="14" rx="2" fill="white"/>
</mask>
<g mask="url(#mask0_45_1105)">
<path d="M20 14H0V13.0664H20V14ZM20 12.1328H0V11.1992H20V12.1328ZM20 10.2676H0V9.33398H20V10.2676ZM20 8.40039H0V7.4668H20V8.40039ZM20 6.5332H0V5.59961H20V6.5332ZM20 4.66602H0V3.73242H20V4.66602ZM20 2.80078H0V1.86719H20V2.80078ZM20 0.933594H0V0H20V0.933594Z" fill="#D02F44"/>
<rect width="8.57143" height="6.53333" fill="#46467F"/>
<g filter="url(#filter0_d_45_1105)">
<path d="M1.42896 4.66602C1.69178 4.66621 1.90454 4.8752 1.90454 5.13281C1.90447 5.39036 1.69173 5.59941 1.42896 5.59961C1.16601 5.59961 0.952464 5.39049 0.952393 5.13281C0.952393 4.87508 1.16596 4.66602 1.42896 4.66602ZM3.33325 4.66602C3.59624 4.66602 3.80981 4.87508 3.80981 5.13281C3.80974 5.39049 3.5962 5.59961 3.33325 5.59961C3.07036 5.59955 2.85774 5.39045 2.85767 5.13281C2.85767 4.87512 3.07031 4.66608 3.33325 4.66602ZM5.23853 4.66602C5.50135 4.66621 5.71411 4.8752 5.71411 5.13281C5.71404 5.39036 5.5013 5.59941 5.23853 5.59961C4.97558 5.59961 4.76203 5.39049 4.76196 5.13281C4.76196 4.87508 4.97553 4.66602 5.23853 4.66602ZM7.14282 4.66602C7.40581 4.66602 7.61938 4.87508 7.61938 5.13281C7.61931 5.39048 7.40577 5.59961 7.14282 5.59961C6.87987 5.59961 6.66633 5.39049 6.66626 5.13281C6.66626 4.87508 6.87983 4.66602 7.14282 4.66602ZM2.3811 3.73438C2.64404 3.73444 2.85669 3.94348 2.85669 4.20117C2.85662 4.4588 2.64399 4.6679 2.3811 4.66797C2.11816 4.66797 1.90461 4.45884 1.90454 4.20117C1.90454 3.94344 2.11811 3.73438 2.3811 3.73438ZM4.2854 3.73438C4.54839 3.73438 4.76196 3.94344 4.76196 4.20117C4.76189 4.45884 4.54835 4.66797 4.2854 4.66797C4.02262 4.66778 3.80989 4.45873 3.80981 4.20117C3.80981 3.94356 4.02257 3.73457 4.2854 3.73438ZM6.19067 3.73438C6.45361 3.73444 6.66626 3.94348 6.66626 4.20117C6.66619 4.4588 6.45356 4.6679 6.19067 4.66797C5.92773 4.66797 5.71418 4.45884 5.71411 4.20117C5.71411 3.94344 5.92768 3.73438 6.19067 3.73438ZM1.42896 2.80078C1.69178 2.80098 1.90454 3.00997 1.90454 3.26758C1.90447 3.52513 1.69173 3.73418 1.42896 3.73438C1.16601 3.73438 0.952464 3.52525 0.952393 3.26758C0.952393 3.00985 1.16596 2.80078 1.42896 2.80078ZM3.33325 2.80078C3.59624 2.80078 3.80981 3.00985 3.80981 3.26758C3.80974 3.52525 3.5962 3.73438 3.33325 3.73438C3.07036 3.73431 2.85774 3.52521 2.85767 3.26758C2.85767 3.00988 3.07031 2.80084 3.33325 2.80078ZM5.23853 2.80078C5.50135 2.80098 5.71411 3.00997 5.71411 3.26758C5.71404 3.52513 5.5013 3.73418 5.23853 3.73438C4.97558 3.73438 4.76203 3.52525 4.76196 3.26758C4.76196 3.00985 4.97553 2.80078 5.23853 2.80078ZM7.14282 2.80078C7.40581 2.80078 7.61938 3.00985 7.61938 3.26758C7.61931 3.52525 7.40577 3.73437 7.14282 3.73438C6.87987 3.73438 6.66633 3.52525 6.66626 3.26758C6.66626 3.00985 6.87983 2.80078 7.14282 2.80078ZM2.3811 1.86719C2.64404 1.86726 2.85669 2.07629 2.85669 2.33398C2.85662 2.59162 2.64399 2.80071 2.3811 2.80078C2.11816 2.80078 1.90461 2.59166 1.90454 2.33398C1.90454 2.07625 2.11811 1.86719 2.3811 1.86719ZM4.2854 1.86719C4.54839 1.86719 4.76196 2.07625 4.76196 2.33398C4.76189 2.59166 4.54835 2.80078 4.2854 2.80078C4.02262 2.80059 3.80989 2.59154 3.80981 2.33398C3.80981 2.07637 4.02257 1.86738 4.2854 1.86719ZM6.19067 1.86719C6.45361 1.86726 6.66626 2.07629 6.66626 2.33398C6.66619 2.59162 6.45356 2.80071 6.19067 2.80078C5.92773 2.80078 5.71418 2.59166 5.71411 2.33398C5.71411 2.07625 5.92768 1.86719 6.19067 1.86719ZM1.42896 0.933594C1.69178 0.933791 1.90454 1.14278 1.90454 1.40039C1.90447 1.65794 1.69173 1.86699 1.42896 1.86719C1.16601 1.86719 0.952464 1.65806 0.952393 1.40039C0.952393 1.14266 1.16596 0.933594 1.42896 0.933594ZM3.33325 0.933594C3.59624 0.933594 3.80981 1.14266 3.80981 1.40039C3.80974 1.65806 3.5962 1.86719 3.33325 1.86719C3.07035 1.86714 2.85676 1.65803 2.85669 1.40039C2.85669 1.14269 3.0703 0.933643 3.33325 0.933594ZM5.23853 0.933594C5.50133 0.933815 5.71411 1.14279 5.71411 1.40039C5.71404 1.65793 5.50128 1.86697 5.23853 1.86719C4.97558 1.86719 4.76203 1.65806 4.76196 1.40039C4.76196 1.14266 4.97553 0.933594 5.23853 0.933594ZM7.14282 0.933594C7.40582 0.933594 7.61938 1.14266 7.61938 1.40039C7.61931 1.65806 7.40577 1.86719 7.14282 1.86719C6.8799 1.86716 6.66633 1.65805 6.66626 1.40039C6.66626 1.14267 6.87985 0.933618 7.14282 0.933594Z" fill="url(#paint0_linear_45_1105)"/>
</g>
</g>
<defs>
<filter id="filter0_d_45_1105" x="0.952393" y="0.933594" width="6.66699" height="5.66602" filterUnits="userSpaceOnUse" color-interpolation-filters="sRGB">
<feFlood flood-opacity="0" result="BackgroundImageFix"/>
<feColorMatrix in="SourceAlpha" type="matrix" values="0 0 0 0 0 0 0 0 0 0 0 0 0 0 0 0 0 0 127 0" result="hardAlpha"/>
<feOffset dy="1"/>
<feColorMatrix type="matrix" values="0 0 0 0 0 0 0 0 0 0 0 0 0 0 0 0 0 0 0.06 0"/>
<feBlend mode="normal" in2="BackgroundImageFix" result="effect1_dropShadow_45_1105"/>
<feBlend mode="normal" in="SourceGraphic" in2="effect1_dropShadow_45_1105" result="shape"/>
</filter>
<linearGradient id="paint0_linear_45_1105" x1="0.952393" y1="0.933594" x2="0.952393" y2="5.59961" gradientUnits="userSpaceOnUse">
<stop stop-color="white"/>
<stop offset="1" stop-color="#F0F0F0"/>
</linearGradient>
</defs>
</svg>
