<svg width="20" height="20" viewBox="0 0 20 20" fill="none" xmlns="http://www.w3.org/2000/svg">
<path d="M4.88113 15.7625C5.97579 14.1634 7.77702 13.1243 10.0003 13.1243C12.2236 13.1243 14.0249 14.1634 15.1195 15.7625M4.88113 15.7625C6.2425 16.9726 8.03557 17.7077 10.0003 17.7077C11.9651 17.7077 13.7581 16.9726 15.1195 15.7625M4.88113 15.7625C3.29271 14.3505 2.29199 12.2918 2.29199 9.99935C2.29199 5.74215 5.74313 2.29102 10.0003 2.29102C14.2575 2.29102 17.7087 5.74215 17.7087 9.99935C17.7087 12.2918 16.7079 14.3505 15.1195 15.7625M12.7087 8.33268C12.7087 9.82845 11.4961 11.041 10.0003 11.041C8.50455 11.041 7.29199 9.82845 7.29199 8.33268C7.29199 6.83691 8.50455 5.62435 10.0003 5.62435C11.4961 5.62435 12.7087 6.83691 12.7087 8.33268Z" stroke="#808080" stroke-width="1.25" stroke-linejoin="round"/>
</svg>
