<svg width="20" height="20" viewBox="0 0 20 20" fill="none" xmlns="http://www.w3.org/2000/svg">
<path d="M1.4585 15.6237H0.708496V16.3737H1.4585V15.6237ZM1.4585 3.95703V3.20703H0.708496V3.95703H1.4585ZM18.5418 3.95703H19.2918V3.20703H18.5418V3.95703ZM18.5418 15.6237V16.3737H19.2918V15.6237H18.5418ZM3.9585 6.1237H3.2085V7.6237H3.9585V6.1237ZM4.79183 7.6237C5.20604 7.6237 5.54183 7.28791 5.54183 6.8737C5.54183 6.45948 5.20604 6.1237 4.79183 6.1237V7.6237ZM15.2085 12.3737H14.4585V13.8737H15.2085V12.3737ZM16.0418 13.8737C16.456 13.8737 16.7918 13.5379 16.7918 13.1237C16.7918 12.7095 16.456 12.3737 16.0418 12.3737V13.8737ZM1.4585 15.6237H2.2085V3.95703H1.4585H0.708496V15.6237H1.4585ZM18.5418 3.95703H17.7918V15.6237H18.5418H19.2918V3.95703H18.5418ZM18.5418 15.6237V14.8737H1.4585V15.6237V16.3737H18.5418V15.6237ZM1.4585 3.95703V4.70703H18.5418V3.95703V3.20703H1.4585V3.95703ZM3.9585 6.8737V7.6237H4.79183V6.8737V6.1237H3.9585V6.8737ZM15.2085 13.1237V13.8737H16.0418V13.1237V12.3737H15.2085V13.1237ZM11.6668 9.9987H10.9168C10.9168 10.505 10.5064 10.9154 10.0002 10.9154V11.6654V12.4154C11.3349 12.4154 12.4168 11.3334 12.4168 9.9987H11.6668ZM10.0002 11.6654V10.9154C9.4939 10.9154 9.0835 10.505 9.0835 9.9987H8.3335H7.5835C7.5835 11.3334 8.66547 12.4154 10.0002 12.4154V11.6654ZM8.3335 9.9987H9.0835C9.0835 9.49244 9.4939 9.08203 10.0002 9.08203V8.33203V7.58203C8.66547 7.58203 7.5835 8.66401 7.5835 9.9987H8.3335ZM10.0002 8.33203V9.08203C10.5064 9.08203 10.9168 9.49244 10.9168 9.9987H11.6668H12.4168C12.4168 8.66401 11.3349 7.58203 10.0002 7.58203V8.33203Z" fill="#E6E6E6"/>
</svg>
