<svg width="20" height="20" viewBox="0 0 20 20" fill="none" xmlns="http://www.w3.org/2000/svg">
<path d="M1.77693 4.30193C5.86828 -1.54056 14.386 -1.31766 18.1916 4.27527C16.2931 6.17702 14.3928 8.07933 12.4858 9.98902C14.4008 11.9129 16.297 13.818 18.22 15.7504C16.2024 18.4439 13.551 19.9464 10.1699 19.9986C6.66251 20.053 3.90056 18.5574 1.79791 15.7816C3.72368 13.8572 5.62508 11.9571 7.53101 10.052C5.5888 8.11109 3.6874 6.21105 1.77637 4.30193H1.77693ZM13.2749 4.18793C11.2068 2.93673 8.35699 3.11766 6.74755 4.19984C7.83544 5.28825 8.9273 6.38063 10.005 7.45884C11.0798 6.38347 12.1717 5.29109 13.2749 4.18793ZM6.73224 15.7895C7.89553 16.9523 11.6842 16.9664 13.2431 15.8287C12.1513 14.7363 11.0549 13.6399 9.96813 12.5527C8.90575 13.6156 7.819 14.7028 6.73224 15.7895Z" fill="#E6E6E6"/>
<path d="M18.482 15.2905C17.6929 14.4993 16.9174 13.7256 16.1504 12.9435C16.1044 12.897 16.0925 12.7705 16.1203 12.7047C16.8737 10.9062 16.8732 9.11109 16.1214 7.312C16.0914 7.24054 16.1084 7.10328 16.1589 7.05167C16.914 6.28314 17.6782 5.52426 18.4406 4.76368C18.452 4.75233 18.4735 4.75177 18.4894 4.74609C20.4412 7.66139 20.5665 12.091 18.4815 15.2905H18.482Z" fill="#E6E6E6"/>
<path d="M1.51628 15.2842C-0.537618 12.1471 -0.471857 7.71464 1.51287 4.73242C1.56843 4.78177 1.62569 4.82657 1.67671 4.87762C2.37854 5.57865 3.0764 6.28365 3.78332 6.97844C3.90918 7.10209 3.93582 7.19511 3.86439 7.36469C3.12798 9.11273 3.13252 10.8681 3.85646 12.6179C3.93015 12.796 3.91201 12.8958 3.77539 13.0297C3.02084 13.7704 2.27706 14.5225 1.51628 15.2842Z" fill="#E6E6E6"/>
</svg>
